PathFileType	4	(X/Y/Z)	C:/Users/beibeiliu/ov580/test_trc\sequence.27_training_dense_right.trc
DataRate	CameraRate	NumFrames	NumMarkers	Units	OrigDataRate	OrigDataStartFrame	OrigNumFrames
120	120	22	19	mm	120	38	75
Frame#	Time	ThumbCMC			ThumbMCP			ThumbIP			ThumbTip			IndexMCP			IndexPIP			IndexTip			MiddleMCP			MiddlePIP			MiddleTip			RingMCP			RingPIP			RingTip			PinkyMCP			PinkyPIP			PinkyTip			BackHand1			BackHand2			BackHand3	
		X0	Y0	Z0	X1	Y1	Z1	X2	Y2	Z2	X3	Y3	Z3	X4	Y4	Z4	X5	Y5	Z5	X6	Y6	Z6	X7	Y7	Z7	X8	Y8	Z8	X9	Y9	Z9	X10	Y10	Z10	X11	Y11	Z11	X12	Y12	Z12	X13	Y13	Z13	X14	Y14	Z14	X15	Y15	Z15	X16	Y16	Z16	X17	Y17	Z17	X18	Y18	Z18	
37	0.308333	91.0482	60.717	15.2555	84.1704	65.2162	-19.6206	105.245	63.783	-42.1513	127.122	50.636	-43.4565	119.725	94.6775	-35.9449	127.229	100.603	-55.577	130.582	110.028	-77.1361	137.161	91.4143	-42.7509	144.667	96.734	-63.0465	152.546	105.996	-85.9203	148.383	76.0135	-36.8821	152.299	85.3071	-60.5074	154.422	92.4673	-76.5826	156.294	58.8312	-31.4216	158.674	67.2116	-49.459	159.716	77.5949	-63.6358	142.293	64.3328	7.24335	141.289	58.0974	27.3528	120.504	77.4637	14.9552	
38	0.316667	81.4781	58.1179	13.1897	72.5011	55.0341	-21.1117	90.3681	56.3818	-44.5565	112.407	49.7049	-49.3009	94.3187	90.6782	-50.0456	94.3749	95.0211	-70.2514	96.6449	97.8828	-92.371	113.189	88.9081	-54.0538	110.488	94.5002	-75.0969	112.379	103.733	-100.203	124.697	81.846	-52.0417	126.963	85.7663	-69.0854	123.482	92.4806	-89.248	139.574	68.1584	-39.4647	140.148	71.807	-55.8968	136.259	80.4248	-72.2371	128.059	73.8533	-3.14236	128.398	72.5015	18.5073	106.004	83.1223	7.86158	
39	0.325	69.6853	56.2464	11.5466	67.3349	46.8376	-23.372	84.1831	46.8641	-42.0335	104.95	43.491	-48.2581	73.6281	77.3679	-51.5706	72.679	76.7943	-74.5558	72.6863	75.1818	-98.0191	90.5036	80.3615	-63.6136	91.3374	79.6361	-85.9825	91.986	82.3731	-109.713	111.145	75.7129	-60.3927	107.043	76.2154	-78.731	103.865	77.5356	-99.5012	123.233	69.8081	-45.9889	124.514	70.296	-64.7641	121.17	73.4675	-83.0211	117.347	79.9384	-11.0987	119.578	80.5973	14.5881	89.6964	85.5124	1.21078	
40	0.333333	63.0269	56.6507	10.2243	61.6428	37.1775	-16.3402	77.1785	33.1169	-36.9883	100.941	36.0548	-43.0803	64.5547	62.1355	-54.801	67.6059	53.0333	-75.3415	67.3871	43.4515	-99.2716	85.557	63.3102	-64.1519	81.5553	55.8316	-82.5411	81.6541	52.4463	-108.967	104.229	62.3649	-57.5381	99.0093	56.9297	-78.7939	98.7121	53.8754	-97.521	120.012	61.4091	-47.7183	118.391	56.6082	-65.5689	115.973	55.5227	-82.5459	104.702	78.9585	-14.9343	108.1	87.4174	9.07237	82.6922	82.2492	-2.54862	
41	0.341667	59.4904	57.9495	13.3776	54.3237	31.4651	-7.67934	73.3742	26.2503	-27.8312	98.2456	24.2609	-35.0452	59.5386	48.0598	-52.6487	62.8031	33.014	-70.3617	61.682	18.7552	-86.1829	78.7214	45.9825	-62.9235	80.655	34.0157	-79.2734	81.0881	21.6718	-102.095	99.3871	46.9363	-56.8108	94.9754	38.377	-71.3007	95.5005	26.5044	-93.118	116.457	49.6216	-41.1067	111.007	38.8252	-60.8214	113.05	33.9978	-74.5972	101.797	75.9424	-13.8577	102.727	83.5446	5.27924	74.2725	80.4188	-3.32242	
42	0.35	57.2832	60.2953	15.0998	49.1969	32.1354	1.16082	65.274	17.0013	-17.7682	90.2835	10.2485	-24.0778	60.749	31.8899	-46.6581	60.1263	15.8345	-56.7018	57.7778	-3.88206	-68.3122	78.1695	26.9525	-53.3819	76.3893	12.7994	-64.1366	72.9853	-6.67618	-82.0276	92.3782	28.9251	-44.7776	90.6257	13.8603	-60.4915	86.2061	1.71223	-73.0309	112.897	31.0098	-32.3236	109.622	19.5704	-45.3117	105.798	7.7748	-61.492	100.968	65.6578	-11.5289	104.132	77.682	5.08021	74.7942	74.3216	-6.64369	
43	0.358333	56.2642	66.3376	19.0024	45.1977	39.0328	8.16947	54.3007	18.5313	-4.15624	72.9442	4.77348	-8.0937	56.8355	27.5612	-33.1794	46.5475	3.3826	-43.9289	41.1558	-14.5166	-47.7551	69.8868	16.928	-35.8515	59.3828	-3.25213	-46.7133	53.4092	-23.9098	-55.8597	86.0815	13.7257	-30.5816	76.4479	-6.6959	-42.2152	73.4747	-22.3013	-50.0161	103.751	11.4111	-19.8697	94.0528	-1.00984	-28.1338	89.1271	-15.7362	-38.7088	101.915	53.4552	-5.67344	108.349	68.8458	7.41847	83.9214	70.3433	-1.52981	
44	0.366667	68.7356	70.507	18.1632	45.9844	53.0638	12.9742	46.4583	28.4814	5.68025	58.1664	6.35627	5.48584	47.0509	24.7964	-25.4437	33.6972	9.72349	-26.8394	21.8404	-12.1825	-24.733	55.9253	10.7882	-22.7499	42.4215	-8.30671	-25.7281	26.0424	-26.1112	-29.4595	69.7929	0.953596	-15.1617	54.505	-13.8052	-20.8933	44.1637	-28.3882	-23.1653	85.3282	2.13165	-2.60812	73.4592	-13.8781	-8.14843	59.9102	-22.8491	-15.1364	102.665	37.6656	-2.87513	116.294	56.4369	14.5521	91.4194	65.6064	-0.158882	
45	0.375	82.1035	75.5688	17.0973	52.1709	65.5167	11.3675	41.9743	41.5067	8.07053	46.0371	15.3786	14.025	46.1897	34.868	-16.5725	22.4221	25.9386	-16.4024	0.675983	12.4129	-11.4113	45.0641	18.9422	-13.0293	25.7947	9.5713	-12.3846	2.78476	-5.99819	-9.60436	57.216	8.38614	-2.22695	34.2599	-3.64118	-3.57182	17.5892	-13.0075	-4.43033	69.3349	-2.88333	9.43181	54.7167	-6.07218	7.99012	38.5265	-20.1567	4.68149	99.057	31.5848	3.96274	122.32	40.997	15.7069	96.6239	59.0596	-2.71952	
46	0.383333	93.8784	80.2179	14.4428	64.047	78.368	10.8402	43.9427	56.6102	11.0731	41.895	37.9213	19.6439	42.4579	51.4181	-14.0003	19.6479	45.0061	-9.94742	-6.2867	41.1792	-2.51068	39.2151	32.1053	-5.73828	14.9172	30.2603	-4.0431	-9.31374	24.8169	1.13864	46.5995	20.0174	4.51904	21.5032	16.8445	6.07969	1.47227	13.9271	7.78526	54.3413	4.62624	18.7854	35.1372	3.53944	20.3255	19.756	3.83505	16.6609	91.3157	23.2409	8.34394	116.065	29.6759	15.0746	101.846	50.7334	-0.634033	
47	0.391667	106.649	76.5421	16.55	73.7836	89.7265	10.0656	50.6852	77.1542	11.554	43.3989	54.1317	21.6192	47.1784	67.0866	-13.3116	20.8835	65.9918	-8.44034	-0.303276	75.0575	-4.38967	34.8306	47.8958	-2.57726	10.2511	55.205	-1.53487	-14.0756	60.8206	1.63445	40.1901	35.2373	8.80295	13.9137	38.7743	11.5957	-2.9374	44.766	12.4754	44.7898	22.2997	23.127	28.0094	28.8418	22.5201	10.4618	30.3324	21.0424	88.1859	25.3133	10.9133	114.175	27.8024	17.9863	105.97	49.818	1.6885	
48	0.4	112.548	78.902	15.8767	86.852	100.087	9.48109	58.6656	92.8926	9.9556	44.0337	79.7927	20.0962	47.5028	83.4995	-14.2859	32.5572	94.1929	-14.6444	11.2163	102.995	-8.21318	35.5831	70.8115	-4.04955	17.709	84.8884	-5.21589	-5.42375	97.4578	-3.23632	35.6257	60.0722	6.88518	17.6369	69.2175	9.55767	-5.26585	81.8391	11.6294	38.1212	44.1677	24.0473	20.9148	52.6298	25.1994	7.63662	64.1401	20.6485	80.2726	33.7246	14.2161	100.867	26.4742	20.3697	102.742	50.6936	2.32052	
49	0.408333	111.404	76.3646	15.342	92.0157	101.923	3.81255	69.5739	106.737	4.25874	47.2075	95.5815	13.8566	58.5908	94.5454	-19.4017	38.9975	112.617	-22.3285	22.7169	128.55	-22.0785	45.5021	88.232	-13.1462	22.6322	106.423	-14.437	8.80475	122.853	-16.8368	33.0734	79.2355	2.7251	22.8341	95.6861	-1.10032	5.00102	111.897	-2.6183	35.4898	66.5826	16.4144	20.124	80.0973	16.6495	11.0434	92.3356	9.34121	69.1333	44.0749	12.2053	89.4696	34.2249	22.9173	97.605	50.7505	3.04325	
50	0.416667	110.782	76.1803	11.5591	97.3587	102.001	-3.16333	74.0446	106.602	-7.28187	47.0185	101.651	-0.416701	64.8064	92.0865	-34.4227	50.8466	108.748	-42.2657	37.3894	125.013	-47.0219	46.4334	91.4678	-28.3366	36.1097	107.067	-34.9896	16.5689	124.353	-40.5644	34.3987	83.6158	-10.9741	26.0406	100.229	-18.5283	12.2378	118.985	-25.8978	32.3052	76.7196	4.7481	24.9787	91.5541	-4.22575	12.3157	104.151	-8.76746	63.5389	50.0205	7.38739	78.7867	36.265	24.0305	91.7408	48.8765	6.57484	
51	0.425	111.284	70.9523	13.9514	97.1553	88.0995	-12.4062	76.6646	93.2761	-20.3977	50.3439	91.9802	-18.5409	71.492	69.9737	-40.844	59.8555	83.2594	-55.7225	50.0354	98.7856	-73.4274	53.8559	70.8752	-37.5969	43.9869	85.1132	-54.527	31.1581	102.888	-73.386	37.8045	70.9903	-23.5688	32.7035	87.4285	-43.6614	21.7273	101.806	-55.0787	33.2826	70.8301	-10.0268	25.5296	81.098	-19.7897	19.8469	94.585	-38.5261	60.4089	45.6677	7.91878	69.5292	37.1825	32.6099	90.5614	42.1471	9.13768	
52	0.433333	112.442	62.1843	12.6298	104.001	73.6063	-18.7504	82.1763	71.8064	-30.9266	59.1487	72.9624	-35.5205	79.6847	43.6961	-45.3634	73.4488	47.7927	-67.2299	59.9254	56.5787	-86.6717	60.8961	43.7102	-44.6513	57.2433	50.3029	-65.6037	43.0242	60.068	-87.6964	48.5586	48.7389	-34.7766	42.8861	56.1234	-54.503	35.5648	65.7724	-74.5829	40.7771	53.2188	-17.5149	36.6957	58.503	-36.058	33.4045	64.2135	-54.6008	61.0646	37.2776	11.7372	73.2325	38.4862	37.7633	89.9906	36.1172	16.0124	
53	0.441667	118.697	53.821	14.507	115.266	56.3373	-20.2834	96.8191	51.7293	-34.6813	69.0388	46.6238	-41.6251	95.3865	18.0942	-35.9571	87.4994	15.4691	-56.3876	79.2497	15.2557	-78.7288	78.2232	16.932	-38.9916	69.2781	14.9207	-65.2501	60.4544	16.3954	-86.3997	58.852	23.4786	-33.6674	55.8255	23.6735	-53.5873	56.2904	25.9801	-78.5697	49.1249	33.4758	-18.0362	45.5134	33.0832	-36.4747	48.975	30.4059	-56.328	69.9017	27.37	17.1323	77.2662	33.8396	39.5826	100.417	25.78	21.7442	
54	0.45	124.15	48.2422	17.0824	123.625	44.5678	-14.521	107.031	31.7767	-32.2585	87.4327	26.9887	-39.8598	108.685	-1.31287	-29.1904	105.116	-10.0738	-50.2256	99.5267	-15.7193	-67.4547	92.9162	-3.9679	-31.5315	88.3359	-12.2215	-55.502	84.8647	-17.7916	-75.3286	77.2855	2.81221	-27.303	71.2823	-2.83804	-45.7995	72.3294	-6.90743	-66.4608	63.4994	12.5932	-17.3486	62.8127	8.41864	-35.1995	62.1751	1.19788	-55.6796	83.4551	17.3528	18.222	84.5877	29.8738	43.116	110.753	18.6478	26.281	
55	0.458333	130.379	46.1343	17.4982	130.742	35.6712	-13.0429	119.085	24.1568	-28.7377	96.5503	11.5804	-33.693	127.019	-8.92737	-20.1684	121.455	-20.8594	-38.0201	118.817	-31.7417	-54.1613	108.97	-15.094	-21.4605	107.805	-27.141	-41.6683	102.863	-41.1164	-64.4163	89.6143	-9.62706	-15.848	94.2297	-21.6979	-38.5706	88.5812	-31.3221	-55.7635	77.6915	0.122605	-8.40559	75.6045	-10.194	-27.1192	81.8727	-19.4771	-42.374	93.6528	9.8389	24.0777	94.1047	28.0199	45.6769	123.534	19.3335	30.9115	
56	0.466667	134.825	49.6369	16.8574	136.633	38.2482	-14.349	126.273	19.938	-25.9055	108.381	5.48381	-32.1667	138.594	-8.87644	-14.8336	140.394	-20.6269	-29.863	138.833	-37.8564	-47.3283	124.874	-17.6244	-14.3026	124.314	-31.4741	-31.2688	125.967	-48.4863	-51.2832	108.204	-14.4391	-9.57813	107.236	-31.1123	-27.374	107.778	-42.1902	-43.5976	93.0003	-7.79842	-3.27268	90.8999	-20.591	-18.1577	94.0131	-31.4212	-35.0437	102.541	10.7321	28.3489	102.27	26.7607	47.3897	128.395	22.7632	32.9657	
57	0.475	135.526	58.3886	16.0136	141.677	43.4027	-15.3021	134.827	21.709	-29.1619	120.652	8.30354	-30.0752	155.076	1.15563	-11.1076	156.132	-16.0022	-26.3635	157.191	-32.2239	-43.7907	139.856	-14.0029	-10.3724	147.378	-30.4854	-27.7577	149.103	-46.6687	-43.8265	121.714	-15.2207	-4.31907	128.624	-30.2642	-19.6685	136.531	-42.8496	-36.8109	106.033	-14.1746	0.807664	113.219	-22.0097	-12.7201	119.248	-36.4029	-30.6605	116.495	13.5867	30.1416	109.419	26.5078	46.3775	134.862	29.8649	33.9827	
58	0.483333	132.779	65.4159	15.1143	139.157	59.8311	-15.9283	140.126	39.7603	-31.4015	128.424	15.8235	-32.1666	164.151	18.6078	-13.9744	174.725	5.01937	-31.9754	179.164	-8.01874	-47.6728	156.238	1.96253	-11.9609	166.381	-15.5709	-31.1992	178.089	-27.4497	-50.3872	143.232	-3.6358	-7.58491	149.908	-20.4455	-24.3615	159.699	-28.1914	-38.2386	123.444	-8.94092	-0.637735	132.504	-17.5113	-15.6838	141.937	-27.1846	-30.9866	122.877	17.1942	28.2068	113.658	30.8079	48.6224	138.9	40.9354	33.993	
